<svg width="180" height="180" viewBox="0 0 180 180" fill="none" xmlns="http://www.w3.org/2000/svg">
<rect width="180" height="180" fill="black"/>
<path d="M70.0215 68H72.1114C80.1597 68.4167 86.4739 70.5744 90.4758 75.0236C94.5371 70.5595 100.851 68.3869 108.944 68H110.945C128.894 69.2202 137.076 82.1366 151.409 87.6275C153.636 88.6442 156.061 89.1524 158.508 89.1156C162.185 88.7137 164.526 84.9788 164.052 80.8122C163.547 76.348 159.19 72.4642 154.328 74.607C153.691 74.9075 153.105 75.3095 152.595 75.7974C152.224 76.1397 151.809 77.0325 150.861 76.7051C149.971 75.9611 150.86 74.8748 151.32 74.2499C152.198 72.6829 153.526 71.4184 155.131 70.6219C156.737 69.8254 158.544 69.534 160.316 69.7857C168.662 70.3809 176.131 77.7319 174.858 88.8626C172.012 105.425 156.923 109.889 139.033 111.377H133.208C117.595 110.737 102.62 104.988 90.5648 95.0083C78.4204 104.963 63.3934 110.705 47.7293 111.377H42.008C23.9846 109.785 8.74761 105.425 6.09448 88.3715C5.08659 76.229 12.2901 70.2618 20.6497 69.6517C22.4373 69.3967 24.2602 69.6857 25.8824 70.4815C27.5048 71.2773 28.8522 72.5433 29.7503 74.1159C30.1653 74.8004 30.9361 75.8569 30.2098 76.6754C29.3056 76.8391 28.861 76.1248 28.4756 75.7677C27.9337 75.2007 27.2854 74.7471 26.568 74.4329C25.8506 74.1188 25.0784 73.9504 24.2959 73.9374C18.5746 73.729 15.2841 80.1128 17.5667 85.2614C18.0142 86.2606 18.7074 87.1288 19.5812 87.7848C20.455 88.4408 21.4806 88.8629 22.5616 89.0114C25.0068 89.0283 27.4273 88.521 29.6614 87.5233C31.6543 86.756 33.5741 85.8098 35.3975 84.6961C46.2915 78.3569 54.8142 69.3541 70.0215 68Z" fill="white"/>
</svg>
