<svg width="115" height="30" fill="none" xmlns="http://www.w3.org/2000/svg"><path d="M43.609.469h1.416c5.453.284 9.73 1.753 12.442 4.782C60.22 2.21 64.497.732 69.98.469h1.356c12.16.83 17.704 9.624 27.415 13.362a11.132 11.132 0 0 0 4.81 1.014c2.491-.274 4.077-2.817 3.756-5.653-.342-3.04-3.294-5.684-6.588-4.225a4.441 4.441 0 0 0-1.175.81c-.25.234-.532.841-1.175.618-.602-.506 0-1.246.312-1.671a6.046 6.046 0 0 1 2.582-2.47 5.979 5.979 0 0 1 3.513-.57c5.654.406 10.715 5.41 9.852 12.988C112.71 25.948 102.487 28.987 90.366 30h-3.947a48.28 48.28 0 0 1-28.891-11.144A48.958 48.958 0 0 1 28.506 30h-3.877C12.418 28.916 2.094 25.948.297 14.338-.386 6.07 4.495 2.008 10.158 1.594a6.068 6.068 0 0 1 3.546.564 6.137 6.137 0 0 1 2.62 2.475c.281.466.804 1.185.312 1.742-.613.112-.914-.375-1.175-.618a3.987 3.987 0 0 0-2.832-1.246c-3.877-.142-6.106 4.204-4.56 7.71a4.39 4.39 0 0 0 1.366 1.717 4.338 4.338 0 0 0 2.019.836 11.552 11.552 0 0 0 4.81-1.013 23.955 23.955 0 0 0 3.886-1.925C27.531 7.52 33.306 1.39 43.61.469Z" fill="orange"/></svg>